<?xml version="1.0" standalone="no"?>
<!DOCTYPE svg PUBLIC "-//W3C//DTD SVG 20010904//EN"
 "http://www.w3.org/TR/2001/REC-SVG-20010904/DTD/svg10.dtd">
<svg version="1.0" xmlns="http://www.w3.org/2000/svg"
 width="32.000000pt" height="32.000000pt" viewBox="0 0 32.000000 32.000000"
 preserveAspectRatio="xMidYMid meet">

<g transform="translate(0.000000,32.000000) scale(0.100000,-0.100000)"
fill="#000000" stroke="none">
<path d="M116 300 c-41 -13 -85 -58 -98 -102 -14 -49 10 -118 54 -149 94 -67
228 -3 228 109 0 102 -90 171 -184 142z m114 -39 c33 -24 50 -58 50 -104 0
-29 -8 -46 -34 -75 -31 -33 -40 -37 -83 -37 -60 0 -99 24 -120 72 -19 48 -10
95 27 132 45 45 109 50 160 12z"/>
<path d="M84 236 c-24 -24 -34 -43 -34 -65 0 -47 26 -91 54 -91 21 0 22 3 18
52 -2 35 1 63 11 81 13 25 16 26 20 10 4 -16 5 -16 6 2 1 16 4 15 17 -10 11
-21 14 -45 11 -82 -5 -44 -3 -52 13 -56 22 -6 44 16 60 57 24 64 -33 136 -108
136 -25 0 -43 -9 -68 -34z"/>
</g>
</svg>
